<svg xmlns="http://www.w3.org/2000/svg" viewBox="0 0 24.78 12.28"><defs><style>.cls-1{fill:#4d87bf;}.cls-2{fill:#fdd000;}</style></defs><title>资源 12</title><g id="图层_2" data-name="图层 2"><g id="图层_1-2" data-name="图层 1"><path class="cls-1" d="M8.14,9.43,6.79,8.65a.16.16,0,0,0-.24.14v1.55a.16.16,0,0,0,.24.14l1.35-.77A.17.17,0,0,0,8.14,9.43Z"/><path class="cls-2" d="M7.45.26A.84.84,0,0,1,7.24.18C7.18.14,7.09,0,7,0s-.23.14-.28.18a.69.69,0,0,1-.23.08h0a2.05,2.05,0,0,0-1.5,2V6.32a.27.27,0,0,0,.27.27h1a.27.27,0,0,0,.27-.27V3.92h.95v2.4a.27.27,0,0,0,.26.27h1A.27.27,0,0,0,9,6.32V2.2A2,2,0,0,0,7.45.26Zm0,2.38H6.48V2.22a.5.5,0,0,1,.43-.49.48.48,0,0,1,.52.47Z"/><rect class="cls-2" x="9.59" y="0.2" width="1.55" height="6.39" rx="0.27"/><path class="cls-2" d="M18.34.2h-1a.26.26,0,0,0-.26.26V2.15a.49.49,0,0,1-.43.49.48.48,0,0,1-.52-.47V.46A.27.27,0,0,0,15.86.2h-1a.26.26,0,0,0-.26.26V2.17A2,2,0,0,0,15.83,4v2.3a.27.27,0,0,0,.26.27h1a.27.27,0,0,0,.27-.27V4a2,2,0,0,0,1.23-1.89V.46A.27.27,0,0,0,18.34.2Z"/><path class="cls-2" d="M15,5H13.24V.46A.26.26,0,0,0,13,.2H12a.26.26,0,0,0-.26.26V6.32a.26.26,0,0,0,.26.27h3a.27.27,0,0,0,.26-.27v-1A.27.27,0,0,0,15,5Z"/><path class="cls-2" d="M4.42,3.11a1,1,0,0,1-.09-.23h0A2.89,2.89,0,0,0,1.64.2H.45A.33.33,0,0,0,.12.53V6.26a.33.33,0,0,0,.33.33H1.64A2.89,2.89,0,0,0,4.33,3.91h0a.91.91,0,0,1,.09-.22.49.49,0,0,0,.14-.29A.43.43,0,0,0,4.42,3.11ZM2.1,4.74a.32.32,0,0,1-.46-.3V2.35A.33.33,0,0,1,2.1,2a1.47,1.47,0,0,1,.78,1.35A1.46,1.46,0,0,1,2.1,4.74Z"/><path class="cls-1" d="M0,12V7.17A.18.18,0,0,1,.18,7H2.05a2.1,2.1,0,0,1,1.44.47A1.63,1.63,0,0,1,4,8.74a1.59,1.59,0,0,1-.59,1.31A2.35,2.35,0,0,1,2,10.52h-1V12a.17.17,0,0,1-.17.17H.18A.18.18,0,0,1,0,12ZM.91,9.69H2a1.21,1.21,0,0,0,.82-.26.85.85,0,0,0,.3-.68.83.83,0,0,0-.3-.69A1.29,1.29,0,0,0,2,7.82H.91Z"/><path class="cls-1" d="M10.58,12V7.17A.17.17,0,0,1,10.75,7h2.14a2.07,2.07,0,0,1,1.42.45,1.5,1.5,0,0,1,.52,1.21,1.47,1.47,0,0,1-.34,1,1.74,1.74,0,0,1-.9.56l1.3,1.83a.09.09,0,0,1-.07.14H14a.19.19,0,0,1-.14-.07l-1.24-1.74H11.49V12a.18.18,0,0,1-.18.17h-.56A.17.17,0,0,1,10.58,12Zm.91-2.45h1.34a1.17,1.17,0,0,0,.78-.24.87.87,0,0,0,0-1.29,1.33,1.33,0,0,0-.8-.22H11.49Z"/><path class="cls-1" d="M15.78,12.19A.18.18,0,0,1,15.6,12V7.17A.18.18,0,0,1,15.78,7h.58a.15.15,0,0,1,.14.07l2.74,3.53V7.17A.18.18,0,0,1,19.42,7H20a.18.18,0,0,1,.18.18V12a.18.18,0,0,1-.18.18h-.5a.15.15,0,0,1-.14-.07L16.5,8.49V12a.18.18,0,0,1-.18.17Z"/><path class="cls-1" d="M22.92,12.27a3.11,3.11,0,0,1-2.05-.74.14.14,0,0,1,0-.21l.34-.41a.18.18,0,0,1,.25,0,2.39,2.39,0,0,0,1.5.57,1.08,1.08,0,0,0,.68-.19.57.57,0,0,0,.24-.48.54.54,0,0,0-.23-.47,3,3,0,0,0-.94-.34,3.44,3.44,0,0,1-1.32-.54,1.24,1.24,0,0,1-.41-1,1.35,1.35,0,0,1,.5-1.09,1.89,1.89,0,0,1,1.27-.42,3,3,0,0,1,1.79.58.14.14,0,0,1,0,.19l-.32.44a.17.17,0,0,1-.24,0,2.29,2.29,0,0,0-1.27-.44,1,1,0,0,0-.62.18.56.56,0,0,0-.23.46.55.55,0,0,0,.25.47,3.7,3.7,0,0,0,1,.34,3.09,3.09,0,0,1,1.26.56,1.22,1.22,0,0,1,.41,1,1.4,1.4,0,0,1-.51,1.14A2.08,2.08,0,0,1,22.92,12.27Z"/><path class="cls-1" d="M7.26,6.9A2.69,2.69,0,1,0,10,9.59,2.69,2.69,0,0,0,7.26,6.9Zm0,4.54A1.85,1.85,0,1,1,9.11,9.59,1.85,1.85,0,0,1,7.26,11.44Z"/></g></g></svg>